<svg width="14" height="12" viewBox="0 0 14 12" fill="none" xmlns="http://www.w3.org/2000/svg">
<g clip-path="url(#clip0_1122_1984)">
<path d="M1.53564 5.30961V10.7335H2.51181V5.30961H1.53564ZM9.25421 5.30961V6.86226C9.25421 9.78044 5.06979 9.71708 5.06979 6.86226V5.30961H3.17611V10.7335H11.1479V5.30961H9.25396H9.25421ZM5.73434 5.30961V6.86226C5.73434 8.85334 8.58941 8.8095 8.58941 6.86226V5.30961H5.73434ZM11.8124 1.10958V4.61294H12.7886V2.42859C12.7886 1.80303 12.377 1.26276 11.8124 1.10958ZM11.8124 5.30961V10.7335H12.7886V5.30961H11.8124ZM11.1482 4.61294V1.06627H3.17636V4.61294H11.1482ZM2.51181 4.61294V1.11145C1.94672 1.26837 1.53564 1.81025 1.53564 2.43767V4.61268L2.51181 4.61294ZM2.84409 0.369873H11.4888C12.5698 0.369873 13.4529 1.29537 13.4529 2.42885V11.0818C13.4529 11.274 13.3042 11.4299 13.1209 11.4299H1.20311C1.01976 11.4299 0.871094 11.274 0.871094 11.0818V2.43794C0.871094 1.29965 1.75801 0.369873 2.84383 0.369873H2.84409Z" fill="#585858"/>
</g>
<defs>
<clipPath id="clip0_1122_1984">
<rect width="12.5818" height="11.06" fill="white" transform="translate(0.871094 0.369873)"/>
</clipPath>
</defs>
</svg>
