<svg width="11" height="11" viewBox="0 0 11 11" fill="none" xmlns="http://www.w3.org/2000/svg">
<path d="M9.87972 8.34401H6.10555M3.27398 0.76001L1.3869 0.762854C1.13666 0.762854 0.896665 0.862732 0.719716 1.04052C0.542768 1.2183 0.443359 1.45943 0.443359 1.71085V3.60401C0.443417 3.83635 0.528396 4.06058 0.682159 4.23412C0.835923 4.40766 1.04776 4.51842 1.27745 4.54537L1.38879 4.55201L3.27587 4.54917C3.52595 4.54891 3.7657 4.44893 3.94245 4.27117C4.11919 4.09341 4.21847 3.85243 4.21847 3.60117V1.70896C4.21864 1.47645 4.13377 1.25199 3.97998 1.07825C3.8262 0.904514 3.61423 0.793616 3.38438 0.766646L3.27398 0.76001ZM8.93524 0.76001L7.04815 0.762854C6.79791 0.762854 6.55792 0.862732 6.38097 1.04052C6.20402 1.2183 6.10461 1.45943 6.10461 1.71085V3.60401C6.10467 3.83635 6.18965 4.06058 6.34341 4.23412C6.49717 4.40766 6.70901 4.51842 6.9387 4.54537L7.05004 4.55201L8.93712 4.54917C9.1872 4.54891 9.42695 4.44893 9.6037 4.27117C9.78044 4.09341 9.87972 3.85243 9.87972 3.60117V1.70896C9.8799 1.47645 9.79502 1.25199 9.64124 1.07825C9.48745 0.904514 9.27548 0.793616 9.04563 0.766646L8.93524 0.76001ZM3.27398 6.44801L1.3869 6.45085C1.13666 6.45085 0.896665 6.55073 0.719716 6.72852C0.542768 6.9063 0.443359 7.14743 0.443359 7.39885V9.29201C0.443417 9.52435 0.528396 9.74858 0.682159 9.92212C0.835923 10.0957 1.04776 10.2064 1.27745 10.2334L1.38879 10.24L3.27587 10.2372C3.52595 10.2369 3.7657 10.1369 3.94245 9.95917C4.11919 9.78141 4.21847 9.54043 4.21847 9.28917V7.39696C4.21864 7.16445 4.13377 6.93999 3.97998 6.76625C3.8262 6.59252 3.61423 6.48162 3.38438 6.45465L3.27398 6.44801ZM7.99264 6.44801V10.24V6.44801Z" stroke="#EEBC4E" stroke-width="0.6" stroke-linecap="round" stroke-linejoin="round"/>
</svg>
