<svg width="11" height="11" viewBox="0 0 11 11" fill="none" xmlns="http://www.w3.org/2000/svg">
<path fill-rule="evenodd" clip-rule="evenodd" d="M4.6373 9.9133C4.6373 9.77362 4.58207 9.63966 4.48375 9.54089C4.38544 9.44212 4.25209 9.38664 4.11306 9.38664H1.49184V2.0133H4.11306C4.25209 2.0133 4.38544 1.95781 4.48375 1.85904C4.58207 1.76027 4.6373 1.62631 4.6373 1.48663C4.6373 1.34695 4.58207 1.21299 4.48375 1.11422C4.38544 1.01545 4.25209 0.959961 4.11306 0.959961H1.49184C1.21377 0.959961 0.947083 1.07094 0.750453 1.26848C0.553824 1.46601 0.443359 1.73393 0.443359 2.0133V9.38664C0.443359 9.666 0.553824 9.93392 0.750453 10.1315C0.947083 10.329 1.21377 10.44 1.49184 10.44H4.11306C4.25209 10.44 4.38544 10.3845 4.48375 10.2857C4.58207 10.1869 4.6373 10.053 4.6373 9.9133Z" fill="#807C76"/>
<path d="M10.2539 6.06853C10.3498 5.97061 10.4036 5.83881 10.4038 5.70145V5.69829C10.4036 5.55913 10.3483 5.42577 10.2502 5.32751L8.15328 3.22084C8.10492 3.17054 8.04707 3.13042 7.98311 3.10282C7.91915 3.07521 7.85036 3.06069 7.78075 3.06008C7.71114 3.05947 7.64211 3.0728 7.57768 3.09928C7.51325 3.12576 7.45472 3.16487 7.4055 3.21432C7.35628 3.26377 7.31735 3.32257 7.29099 3.3873C7.26463 3.45202 7.25137 3.52137 7.25197 3.5913C7.25258 3.66123 7.26704 3.73034 7.29451 3.7946C7.32199 3.85885 7.36193 3.91697 7.412 3.96555L8.61408 5.1732H3.5887C3.44966 5.1732 3.31631 5.22869 3.218 5.32746C3.11969 5.42623 3.06445 5.56019 3.06445 5.69987C3.06445 5.83955 3.11969 5.97351 3.218 6.07228C3.31631 6.17105 3.44966 6.22654 3.5887 6.22654H8.61408L7.412 7.43418C7.3165 7.53351 7.26366 7.66655 7.26485 7.80464C7.26605 7.94273 7.32118 8.07483 7.41838 8.17248C7.51558 8.27012 7.64707 8.32551 7.78452 8.32671C7.92198 8.32791 8.0544 8.27483 8.15328 8.17889L10.2502 6.07222L10.2539 6.06853Z" fill="#807C76"/>
</svg>
