<svg width="14" height="14" viewBox="0 0 14 14" fill="none" xmlns="http://www.w3.org/2000/svg">
<g clip-path="url(#clip0_1122_1972)">
<path fill-rule="evenodd" clip-rule="evenodd" d="M6.02356 0.780029C5.86578 0.780029 5.73761 0.908789 5.73761 1.0673V2.10277C5.26579 2.19177 5.0092 2.28949 4.61807 2.54214L3.9711 1.89218C3.85928 1.77984 3.67851 1.77984 3.56669 1.89218L1.97839 3.48783C1.86681 3.59992 1.86681 3.78177 1.97839 3.89412L2.65879 4.57767C2.38484 4.95625 2.25693 5.17889 2.14766 5.66879H1.15704C0.999005 5.66879 0.871094 5.7973 0.871094 5.95607V8.24399C0.871094 8.4025 0.999261 8.53126 1.15704 8.53126H2.20153C2.30238 8.96961 2.46042 9.26406 2.67386 9.60725L1.97839 10.3059C1.86681 10.418 1.86681 10.5999 1.97839 10.7122L3.56669 12.3079C3.66728 12.4087 3.82608 12.4202 3.93995 12.3348C4.03876 12.2607 4.07016 12.2107 4.15135 12.1206C4.2328 12.0306 4.3288 11.9218 4.42301 11.8198C4.5042 11.7313 4.5836 11.6487 4.64538 11.5897C5.01252 11.8095 5.30384 11.9557 5.73736 12.0555V13.1327C5.73736 13.2913 5.86552 13.42 6.02331 13.42H8.3007C8.45874 13.42 8.58665 13.2913 8.58665 13.1327V12.1281C9.04621 12.0196 9.3102 11.8726 9.67581 11.6274L10.3529 12.3076C10.4647 12.42 10.6457 12.42 10.7573 12.3076L12.3459 10.712C12.4574 10.5999 12.4574 10.418 12.3459 10.3057L11.6675 9.62418C11.9371 9.23482 12.0505 9.03116 12.1409 8.53126H13.167C13.325 8.53126 13.4529 8.4025 13.4529 8.24399V5.95607C13.4529 5.7973 13.3247 5.66879 13.167 5.66879H12.1291C12.0232 5.23865 11.859 4.94394 11.6473 4.59614L12.3459 3.89437C12.4574 3.78203 12.4574 3.60017 12.3459 3.48809L10.7573 1.89244C10.7037 1.83858 10.6309 1.80831 10.5549 1.80831C10.4788 1.80831 10.4063 1.83858 10.3526 1.8927L9.68066 2.56881C9.29642 2.31335 9.05566 2.21537 8.58639 2.12328V1.0673C8.58665 0.908789 8.45874 0.780029 8.3007 0.780029H6.02356ZM6.30926 1.35457H8.01475V2.36285C8.01475 2.5029 8.11509 2.62242 8.2527 2.64602C8.96272 2.76785 8.98443 2.7758 9.55122 3.17568C9.66509 3.25596 9.81981 3.24237 9.91785 3.14362L10.5554 2.50187L11.7393 3.69123L11.0831 4.35042C10.9894 4.44455 10.9723 4.59075 11.0417 4.70412C11.356 5.21762 11.5153 5.43897 11.6157 6.00685C11.6399 6.14382 11.7587 6.24359 11.8973 6.24359H12.881V7.95697H11.8973C11.7551 7.95697 11.6346 8.06188 11.6141 8.20295C11.5051 8.95755 11.4916 8.87676 11.0611 9.49157C10.9812 9.60571 10.9945 9.7614 11.0928 9.85989L11.739 10.5088L10.5549 11.6984L9.913 11.0536C9.81572 10.9561 9.6633 10.9418 9.54969 11.0192C9.00255 11.3937 8.89507 11.4927 8.24861 11.6117C8.11279 11.6369 8.01424 11.7556 8.01424 11.8944V12.8455H6.30926V11.82C6.30926 11.6802 6.20918 11.5607 6.07207 11.5368C5.49609 11.4366 5.2972 11.3173 4.79347 11.0082C4.7927 11.0082 4.79219 11.0069 4.79168 11.0069C4.69032 10.9446 4.59279 10.96 4.54096 10.9746C4.48888 10.9892 4.45901 11.0074 4.43169 11.0246C4.37705 11.0587 4.33569 11.0947 4.29024 11.1359C4.19935 11.2185 4.10106 11.3224 4.00251 11.4299C3.91774 11.5222 3.83604 11.6141 3.7643 11.6938L2.58475 10.5088L3.07291 10.0184C3.1204 10.022 3.18219 10.014 3.24933 9.96865C3.35988 9.89401 3.37648 9.77294 3.37571 9.72447C3.37393 9.62751 3.35605 9.62418 3.34993 9.61007C3.34354 9.59596 3.33971 9.58955 3.33639 9.58391C3.33078 9.57416 3.32746 9.56903 3.32388 9.56364C2.97666 9.01757 2.82015 8.81468 2.71879 8.1973H2.71854C2.69581 8.05854 2.57633 7.95671 2.43642 7.95671H1.44299V6.24334H2.38101C2.51888 6.24334 2.63709 6.14459 2.66211 6.00865C2.79539 5.28739 2.83266 5.30637 3.26414 4.72002C3.34839 4.60563 3.33665 4.4466 3.23631 4.34606L2.5845 3.69123L3.76864 2.50161L4.37909 3.11489C4.47662 3.21287 4.62981 3.22698 4.74342 3.14849C5.30741 2.75913 5.3623 2.74349 6.06926 2.62755C6.20764 2.60472 6.309 2.48494 6.309 2.34413L6.30926 1.35457ZM3.27103 9.51619C3.27461 9.51978 3.28023 9.52389 3.28737 9.54928C3.28278 9.53774 3.27742 9.52671 3.27103 9.51619ZM4.73398 11.513C4.73398 11.513 4.73347 11.513 4.73245 11.5143L4.73398 11.513Z" fill="#807C76" stroke="#807C76" stroke-width="0.2"/>
<path fill-rule="evenodd" clip-rule="evenodd" d="M7.16311 3.98315C5.45302 3.98315 4.06055 5.38207 4.06055 7.10032C4.06055 8.81831 5.45302 10.2175 7.16311 10.2175C8.8732 10.2175 10.2657 8.81857 10.2657 7.10032C10.2657 5.38207 8.8732 3.98315 7.16311 3.98315ZM7.16311 4.5577C8.56427 4.5577 9.69403 5.69268 9.69403 7.10006C9.69403 8.50744 8.56427 9.64268 7.16311 9.64268C5.76195 9.64268 4.63245 8.5077 4.63245 7.10006C4.63245 5.69243 5.76195 4.5577 7.16311 4.5577Z" fill="#807C76" stroke="#807C76" stroke-width="0.2"/>
</g>
<defs>
<clipPath id="clip0_1122_1972">
<rect width="12.5818" height="12.64" fill="white" transform="translate(0.871094 0.780029)"/>
</clipPath>
</defs>
</svg>
