<svg width="12" height="13" viewBox="0 0 12 13" fill="none" xmlns="http://www.w3.org/2000/svg">
<path d="M11.4834 10.1823C11.1937 9.49286 10.7732 8.86662 10.2455 8.33846C9.71934 7.80877 9.09608 7.38645 8.41012 7.09482C8.40398 7.09174 8.39783 7.09019 8.39169 7.08711C9.34854 6.39277 9.97056 5.26178 9.97056 3.98574C9.97056 1.87187 8.26575 0.15918 6.16161 0.15918C4.05748 0.15918 2.35267 1.87187 2.35267 3.98574C2.35267 5.26178 2.97469 6.39277 3.93154 7.08865C3.92539 7.09174 3.91925 7.09328 3.91311 7.09637C3.22504 7.38799 2.60762 7.80613 2.07775 8.34C1.5505 8.86857 1.13012 9.49471 0.839838 10.1838C0.554661 10.8585 0.400859 11.5818 0.386757 12.3147C0.386347 12.3312 0.389222 12.3475 0.395213 12.3629C0.401204 12.3782 0.41019 12.3922 0.42164 12.404C0.433091 12.4158 0.446775 12.4251 0.461886 12.4315C0.476997 12.4379 0.493229 12.4412 0.509626 12.4412H1.43115C1.49872 12.4412 1.55248 12.3872 1.55402 12.3209C1.58473 11.1297 2.06085 10.0141 2.90251 9.16857C3.77334 8.29371 4.92985 7.8123 6.16161 7.8123C7.39338 7.8123 8.54989 8.29371 9.42072 9.16857C10.2624 10.0141 10.7385 11.1297 10.7692 12.3209C10.7707 12.3887 10.8245 12.4412 10.8921 12.4412H11.8136C11.83 12.4412 11.8462 12.4379 11.8613 12.4315C11.8765 12.4251 11.8901 12.4158 11.9016 12.404C11.913 12.3922 11.922 12.3782 11.928 12.3629C11.934 12.3475 11.9369 12.3312 11.9365 12.3147C11.9211 11.5771 11.7691 10.8597 11.4834 10.1823ZM6.16161 6.63965C5.45665 6.63965 4.79316 6.36346 4.294 5.86199C3.79484 5.36053 3.51992 4.69396 3.51992 3.98574C3.51992 3.27752 3.79484 2.61096 4.294 2.10949C4.79316 1.60803 5.45665 1.33184 6.16161 1.33184C6.86658 1.33184 7.53007 1.60803 8.02923 2.10949C8.52838 2.61096 8.8033 3.27752 8.8033 3.98574C8.8033 4.69396 8.52838 5.36053 8.02923 5.86199C7.53007 6.36346 6.86658 6.63965 6.16161 6.63965Z" fill="#6A6A6A"/>
</svg>
