<svg width="100" height="98" viewBox="0 0 100 98" fill="none" xmlns="http://www.w3.org/2000/svg">
<path d="M50 0C22.4557 0 0 21.8201 0 48.5849C0 75.3951 22.4557 97.1698 50 97.1698C77.5444 97.1698 100 75.3497 100 48.5849C100 21.8201 77.591 0 50 0ZM50 37.2439C47.5257 37.2439 45.4715 39.1945 45.4715 41.6442C45.4715 43.4134 46.5453 44.9104 48.0859 45.6362V51.3521C43.4174 50.4902 39.8693 46.4528 39.8693 41.6896C39.8693 36.2459 44.4444 31.8456 50 31.8456C55.5556 31.8456 60.1307 36.2912 60.1307 41.6896C60.1307 46.4982 56.5826 50.4902 51.9141 51.3521V45.6362C53.4547 44.9558 54.5285 43.4134 54.5285 41.6442C54.5285 39.2399 52.521 37.2439 50 37.2439ZM51.9141 55.072C58.6835 54.1647 63.9589 48.4942 63.9589 41.6442C63.9589 34.1591 57.7031 28.0804 50 28.0804C42.2969 28.0804 36.0411 34.1591 36.0411 41.6442C36.0411 48.4942 41.2698 54.1647 48.0859 55.072V64.6438C35.901 63.6911 26.2838 53.7564 26.2838 41.6442C26.2838 28.9423 36.9281 18.5539 50.0467 18.5539C63.1653 18.5539 73.8095 28.8969 73.8095 41.6442C73.8095 53.7564 64.1923 63.6911 52.0075 64.6438V55.072H51.9141ZM51.9141 88.9136V71.0855C67.7404 70.1328 80.3455 57.2948 80.3455 41.6442C80.3455 25.3585 66.7134 12.1576 50 12.1576C33.2867 12.1576 19.6545 25.4039 19.6545 41.6442C19.6545 57.2948 32.2596 70.1328 48.0859 71.0855V88.9136C26.0504 87.9156 8.45005 70.2236 8.45005 48.5849C8.45005 26.3112 27.0775 8.21089 50 8.21089C72.9225 8.21089 91.55 26.3112 91.55 48.5849C91.55 70.2236 73.9496 87.9609 51.9141 88.9136Z" fill="#EEBC4E"/>
</svg>
