<svg width="26" height="26" viewBox="0 0 26 26" fill="none" xmlns="http://www.w3.org/2000/svg">
<path fill-rule="evenodd" clip-rule="evenodd" d="M0 13C0 5.8203 5.8203 0 13 0C20.1797 0 26 5.8203 26 13C26 20.1797 20.1797 26 13 26C5.8203 26 0 20.1797 0 13ZM18.3597 5.63333H8.07362C7.20621 5.63333 6.5 6.331 6.5 7.1955V17.4482C6.5 18.3127 7.20621 19.0103 8.07362 19.0103H16.7784L16.3716 17.6074L17.3541 18.5098L18.283 19.3592L19.9333 20.8V7.1955C19.9333 6.331 19.2271 5.63333 18.3597 5.63333Z" fill="white"/>
<path fill-rule="evenodd" clip-rule="evenodd" d="M15.3967 15.5372C15.3967 15.5372 15.1204 15.2111 14.8901 14.9229C15.8957 14.6423 16.2795 14.0205 16.2795 14.0205C15.9647 14.2253 15.6654 14.3693 15.3967 14.4679C15.0129 14.6272 14.6444 14.7333 14.2837 14.794C13.5467 14.9305 12.8712 14.8926 12.2955 14.7864C11.858 14.703 11.4818 14.5817 11.1671 14.4603C10.9906 14.3921 10.7987 14.3087 10.6068 14.2025C10.5837 14.1873 10.5607 14.1798 10.5377 14.1646C10.5223 14.157 10.5146 14.1494 10.507 14.1418C10.3688 14.066 10.292 14.0129 10.292 14.0129C10.292 14.0129 10.6605 14.6196 11.6354 14.9078C11.4051 15.1959 11.1211 15.5372 11.1211 15.5372C9.42463 15.4841 8.77983 14.3845 8.77983 14.3845C8.77983 11.9427 9.8852 9.96342 9.8852 9.96342C10.9906 9.14442 12.0422 9.16717 12.0422 9.16717L12.119 9.25817C10.7373 9.6525 10.1001 10.2516 10.1001 10.2516C10.1001 10.2516 10.269 10.1606 10.553 10.0317C11.3744 9.67525 12.0269 9.57667 12.2955 9.55392C12.3416 9.54633 12.38 9.53875 12.426 9.53875C12.8943 9.47808 13.4239 9.46292 13.9766 9.52358C14.7058 9.607 15.4888 9.81933 16.2871 10.2516C16.2871 10.2516 15.6807 9.68283 14.3758 9.2885L14.4832 9.16717C14.4832 9.16717 15.5349 9.14442 16.6402 9.96342C16.6402 9.96342 17.7456 11.9427 17.7456 14.3845C17.7456 14.3845 17.0931 15.4841 15.3967 15.5372ZM12.0435 12.1333C11.6094 12.1333 11.2667 12.5237 11.2667 13C11.2667 13.4763 11.617 13.8667 12.0435 13.8667C12.4776 13.8667 12.8203 13.4763 12.8203 13C12.8279 12.5237 12.4776 12.1333 12.0435 12.1333ZM14.8232 12.1333C14.3891 12.1333 14.0464 12.5237 14.0464 13C14.0464 13.4763 14.3967 13.8667 14.8232 13.8667C15.2573 13.8667 15.6 13.4763 15.6 13C15.6 12.5237 15.2573 12.1333 14.8232 12.1333Z" fill="white"/>
</svg>
