<svg width="27" height="27" viewBox="0 0 27 27" fill="none" xmlns="http://www.w3.org/2000/svg">
<path fill-rule="evenodd" clip-rule="evenodd" d="M0.0625 13.6963C0.0625 6.51659 5.8828 0.696289 13.0625 0.696289C20.2422 0.696289 26.0625 6.51659 26.0625 13.6963C26.0625 20.876 20.2422 26.6963 13.0625 26.6963C5.8828 26.6963 0.0625 20.876 0.0625 13.6963ZM18.4222 6.32962H8.13612C7.26871 6.32962 6.5625 7.02729 6.5625 7.89179V18.1445C6.5625 19.009 7.26871 19.7066 8.13612 19.7066H16.8409L16.4341 18.3037L17.4166 19.2061L18.3455 20.0555L19.9958 21.4963V7.89179C19.9958 7.02729 19.2896 6.32962 18.4222 6.32962Z" fill="#EEBC4E"/>
<path fill-rule="evenodd" clip-rule="evenodd" d="M15.4592 16.2335C15.4592 16.2335 15.1829 15.9074 14.9526 15.6192C15.9582 15.3386 16.342 14.7168 16.342 14.7168C16.0272 14.9215 15.7279 15.0656 15.4592 15.1642C15.0754 15.3235 14.7069 15.4296 14.3462 15.4903C13.6092 15.6268 12.9337 15.5889 12.358 15.4827C11.9205 15.3993 11.5443 15.278 11.2296 15.1566C11.0531 15.0884 10.8612 15.005 10.6693 14.8988C10.6462 14.8836 10.6232 14.876 10.6002 14.8609C10.5848 14.8533 10.5771 14.8457 10.5695 14.8381C10.4313 14.7623 10.3545 14.7092 10.3545 14.7092C10.3545 14.7092 10.723 15.3159 11.6979 15.604C11.4676 15.8922 11.1836 16.2335 11.1836 16.2335C9.48713 16.1804 8.84233 15.0808 8.84233 15.0808C8.84233 12.639 9.9477 10.6597 9.9477 10.6597C11.0531 9.84071 12.1047 9.86346 12.1047 9.86346L12.1815 9.95446C10.7998 10.3488 10.1626 10.9479 10.1626 10.9479C10.1626 10.9479 10.3315 10.8569 10.6155 10.728C11.4369 10.3715 12.0894 10.273 12.358 10.2502C12.4041 10.2426 12.4425 10.235 12.4885 10.235C12.9568 10.1744 13.4864 10.1592 14.0391 10.2199C14.7683 10.3033 15.5513 10.5156 16.3496 10.9479C16.3496 10.9479 15.7432 10.3791 14.4383 9.98479L14.5457 9.86346C14.5457 9.86346 15.5974 9.84071 16.7027 10.6597C16.7027 10.6597 17.8081 12.639 17.8081 15.0808C17.8081 15.0808 17.1556 16.1804 15.4592 16.2335ZM12.106 12.8296C11.6719 12.8296 11.3292 13.22 11.3292 13.6963C11.3292 14.1726 11.6795 14.563 12.106 14.563C12.5401 14.563 12.8828 14.1726 12.8828 13.6963C12.8904 13.22 12.5401 12.8296 12.106 12.8296ZM14.8857 12.8296C14.4516 12.8296 14.1089 13.22 14.1089 13.6963C14.1089 14.1726 14.4592 14.563 14.8857 14.563C15.3198 14.563 15.6625 14.1726 15.6625 13.6963C15.6625 13.22 15.3198 12.8296 14.8857 12.8296Z" fill="#EEBC4E"/>
</svg>
