<svg width="27" height="27" viewBox="0 0 27 27" fill="none" xmlns="http://www.w3.org/2000/svg">
<g clip-path="url(#clip0_1070_227)">
<path fill-rule="evenodd" clip-rule="evenodd" d="M0.0625 13.7689C0.0625 20.232 4.75658 25.6065 10.8958 26.6963V17.307H7.64583V13.6963H10.8958V10.807C10.8958 7.55704 12.9899 5.75221 15.9518 5.75221C16.8899 5.75221 17.9018 5.89629 18.8399 6.04037V9.36296H17.1792C15.5899 9.36296 15.2292 10.157 15.2292 11.1689V13.6963H18.6958L18.1184 17.307H15.2292V26.6963C21.3684 25.6065 26.0625 20.2331 26.0625 13.7689C26.0625 6.57879 20.2125 0.696289 13.0625 0.696289C5.9125 0.696289 0.0625 6.57879 0.0625 13.7689Z" fill="#EEBC4E"/>
</g>
<defs>
<clipPath id="clip0_1070_227">
<rect width="26" height="26" fill="white" transform="translate(0.0625 0.696289)"/>
</clipPath>
</defs>
</svg>
