<svg width="129" height="124" viewBox="0 0 129 124" fill="none" xmlns="http://www.w3.org/2000/svg">
<g filter="url(#filter0_d_466_461)">
<rect x="0.518555" y="38.7793" width="57.6299" height="68.9054" rx="28.815" transform="rotate(-31 0.518555 38.7793)" fill="url(#paint0_linear_466_461)"/>
<rect x="16.0019" y="32.5968" width="52.28" height="63.5554" rx="26.14" transform="rotate(-31 16.0019 32.5968)" fill="url(#paint1_linear_466_461)"/>
<rect x="16.0019" y="32.5968" width="52.28" height="63.5554" rx="26.14" transform="rotate(-31 16.0019 32.5968)" stroke="url(#paint2_linear_466_461)" stroke-width="5.34995"/>
<rect x="16.0019" y="32.5968" width="52.28" height="63.5554" rx="26.14" transform="rotate(-31 16.0019 32.5968)" stroke="url(#paint3_linear_466_461)" stroke-width="5.34995"/>
</g>
<path d="M70.6789 36.947C65.4191 28.1932 54.065 25.3623 45.3112 30.6221C36.5573 35.8819 33.7264 47.2361 38.9863 55.9899C43.7385 63.899 53.4724 66.9729 61.7628 63.6108L55.109 52.5369L51.0835 54.9556L48.3311 50.3749L52.3566 47.9562L50.2588 44.4649C47.8727 40.4937 48.9188 36.8796 52.5398 34.7039C54.274 33.6619 56.2732 32.8816 56.2732 32.8816L58.6152 36.7793L56.6165 37.9802C54.6485 39.1627 54.7685 40.7533 55.5214 42.0063L57.3086 44.9807L61.7034 42.3401L63.7529 47.3431L60.0609 49.5615L66.7148 60.6353C73.5755 54.8937 75.4312 44.8561 70.6789 36.947Z" fill="#1B76FF"/>
<defs>
<filter id="filter0_d_466_461" x="5.23926" y="0.720703" width="123.259" height="122.401" filterUnits="userSpaceOnUse" color-interpolation-filters="sRGB">
<feFlood flood-opacity="0" result="BackgroundImageFix"/>
<feColorMatrix in="SourceAlpha" type="matrix" values="0 0 0 0 0 0 0 0 0 0 0 0 0 0 0 0 0 0 127 0" result="hardAlpha"/>
<feOffset dx="18" dy="12"/>
<feGaussianBlur stdDeviation="12"/>
<feComposite in2="hardAlpha" operator="out"/>
<feColorMatrix type="matrix" values="0 0 0 0 0.294118 0 0 0 0 0.447059 0 0 0 0 0.984314 0 0 0 0.1 0"/>
<feBlend mode="normal" in2="BackgroundImageFix" result="effect1_dropShadow_466_461"/>
<feBlend mode="normal" in="SourceGraphic" in2="effect1_dropShadow_466_461" result="shape"/>
</filter>
<linearGradient id="paint0_linear_466_461" x1="12.2295" y1="38.6147" x2="11.6052" y2="107.816" gradientUnits="userSpaceOnUse">
<stop stop-color="#FDFEFF"/>
<stop offset="0.15625" stop-color="#F7F7F7"/>
<stop offset="0.758565" stop-color="#DEDEDE"/>
<stop offset="0.833789" stop-color="#D2D2D2"/>
<stop offset="0.91676" stop-color="#EAEAEA"/>
<stop offset="1" stop-color="#E6E6E6"/>
</linearGradient>
<linearGradient id="paint1_linear_466_461" x1="41.1463" y1="31.6816" x2="41.1463" y2="100.587" gradientUnits="userSpaceOnUse">
<stop stop-color="white"/>
<stop offset="0.831735" stop-color="#F5F5F5"/>
<stop offset="1" stop-color="white"/>
</linearGradient>
<linearGradient id="paint2_linear_466_461" x1="65.0323" y1="33.8579" x2="17.8183" y2="98.8262" gradientUnits="userSpaceOnUse">
<stop offset="0.670529" stop-color="white"/>
<stop offset="0.925805" stop-color="#F0F0F0"/>
<stop offset="1" stop-color="#C1C1C1"/>
</linearGradient>
<linearGradient id="paint3_linear_466_461" x1="18.8965" y1="20.6914" x2="40.8921" y2="52.4908" gradientUnits="userSpaceOnUse">
<stop stop-color="white" stop-opacity="0.4"/>
<stop offset="1" stop-color="white" stop-opacity="0"/>
</linearGradient>
</defs>
</svg>
