<svg width="131" height="122" viewBox="0 0 131 122" fill="none" xmlns="http://www.w3.org/2000/svg">
<g filter="url(#filter0_d_466_504)">
<rect x="0.518555" y="36.7793" width="57.6299" height="68.9054" rx="28.815" transform="rotate(-31 0.518555 36.7793)" fill="url(#paint0_linear_466_504)"/>
<rect x="17.9506" y="33.8402" width="52.28" height="63.5554" rx="26.14" transform="rotate(-31 17.9506 33.8402)" fill="url(#paint1_linear_466_504)"/>
<rect x="17.9506" y="33.8402" width="52.28" height="63.5554" rx="26.14" transform="rotate(-31 17.9506 33.8402)" stroke="url(#paint2_linear_466_504)" stroke-width="5.34995"/>
<rect x="17.9506" y="33.8402" width="52.28" height="63.5554" rx="26.14" transform="rotate(-31 17.9506 33.8402)" stroke="url(#paint3_linear_466_504)" stroke-width="5.34995"/>
<path d="M68.8369 40.7115C68.354 39.9079 67.8244 39.1877 67.2561 38.5184L55.7607 45.4255L58.5175 50.0135L65.0993 46.0587C65.709 47.7416 65.6083 49.5327 64.8461 51.1676L66.6798 54.2195L70.6066 51.8601C71.6281 48.3525 71.068 44.4246 68.8369 40.7115Z" fill="#4285F4"/>
<path d="M64.3182 59.6676C67.6142 57.6871 69.7109 54.932 70.6065 51.8601L64.8461 51.1676C64.1875 52.5602 63.0627 53.8452 61.4147 54.8355C58.2306 56.7487 54.2451 56.222 51.5366 53.9034L47.4878 56.3362L49.3766 59.4796C53.7767 62.2632 59.5471 62.5343 64.3182 59.6676Z" fill="#34A853"/>
<path d="M51.5369 53.9038C50.8425 53.3242 50.2396 52.6203 49.7506 51.8065C49.2616 50.9927 48.9334 50.1238 48.7374 49.2447L46.8487 46.1012L42.7998 48.534C42.9559 50.6832 43.5902 52.822 44.7761 54.7955C45.9619 56.7691 47.5525 58.3332 49.3769 59.48L51.5369 53.9038Z" fill="#FBBC05"/>
<path d="M52.5518 40.0852C54.3524 39.0033 56.3325 38.6581 58.3315 39.1046L59.7202 33.535C56.4286 32.8267 52.9443 33.2726 49.6483 35.2531C44.8772 38.1198 42.4076 43.3421 42.7996 48.534L48.7372 49.2447C47.9616 45.7647 49.3676 41.9984 52.5518 40.0852Z" fill="#EA4335"/>
</g>
<defs>
<filter id="filter0_d_466_504" x="5.23926" y="1.96411" width="125.208" height="119.158" filterUnits="userSpaceOnUse" color-interpolation-filters="sRGB">
<feFlood flood-opacity="0" result="BackgroundImageFix"/>
<feColorMatrix in="SourceAlpha" type="matrix" values="0 0 0 0 0 0 0 0 0 0 0 0 0 0 0 0 0 0 127 0" result="hardAlpha"/>
<feOffset dx="18" dy="12"/>
<feGaussianBlur stdDeviation="12"/>
<feComposite in2="hardAlpha" operator="out"/>
<feColorMatrix type="matrix" values="0 0 0 0 0 0 0 0 0 0 0 0 0 0 0 0 0 0 0.1 0"/>
<feBlend mode="normal" in2="BackgroundImageFix" result="effect1_dropShadow_466_504"/>
<feBlend mode="normal" in="SourceGraphic" in2="effect1_dropShadow_466_504" result="shape"/>
</filter>
<linearGradient id="paint0_linear_466_504" x1="12.2295" y1="36.6147" x2="11.6052" y2="105.816" gradientUnits="userSpaceOnUse">
<stop stop-color="#FDFEFF"/>
<stop offset="0.15625" stop-color="#F7F7F7"/>
<stop offset="0.758565" stop-color="#DEDEDE"/>
<stop offset="0.833789" stop-color="#D2D2D2"/>
<stop offset="0.91676" stop-color="#EAEAEA"/>
<stop offset="1" stop-color="#E6E6E6"/>
</linearGradient>
<linearGradient id="paint1_linear_466_504" x1="43.095" y1="32.925" x2="43.095" y2="101.83" gradientUnits="userSpaceOnUse">
<stop stop-color="white"/>
<stop offset="0.831735" stop-color="#F5F5F5"/>
<stop offset="1" stop-color="white"/>
</linearGradient>
<linearGradient id="paint2_linear_466_504" x1="66.981" y1="35.1013" x2="19.767" y2="100.07" gradientUnits="userSpaceOnUse">
<stop offset="0.670529" stop-color="white"/>
<stop offset="0.925805" stop-color="#F0F0F0"/>
<stop offset="1" stop-color="#C1C1C1"/>
</linearGradient>
<linearGradient id="paint3_linear_466_504" x1="20.8452" y1="21.9349" x2="42.8408" y2="53.7342" gradientUnits="userSpaceOnUse">
<stop stop-color="white" stop-opacity="0.4"/>
<stop offset="1" stop-color="white" stop-opacity="0"/>
</linearGradient>
</defs>
</svg>
