<svg width="129" height="124" viewBox="0 0 129 124" fill="none" xmlns="http://www.w3.org/2000/svg">
<g filter="url(#filter0_d_466_486)">
<rect x="0.518555" y="38.7793" width="57.6299" height="68.9054" rx="28.815" transform="rotate(-31 0.518555 38.7793)" fill="url(#paint0_linear_466_486)"/>
<rect x="16.0019" y="32.5968" width="52.28" height="63.5554" rx="26.14" transform="rotate(-31 16.0019 32.5968)" fill="url(#paint1_linear_466_486)"/>
<rect x="16.0019" y="32.5968" width="52.28" height="63.5554" rx="26.14" transform="rotate(-31 16.0019 32.5968)" stroke="url(#paint2_linear_466_486)" stroke-width="5.34995"/>
<rect x="16.0019" y="32.5968" width="52.28" height="63.5554" rx="26.14" transform="rotate(-31 16.0019 32.5968)" stroke="url(#paint3_linear_466_486)" stroke-width="5.34995"/>
</g>
<path fill-rule="evenodd" clip-rule="evenodd" d="M63.0157 61.6101C70.5901 57.059 73.0409 47.2293 68.4898 39.6548C63.9386 32.0804 54.1089 29.6296 46.5345 34.1808C38.9601 38.7319 36.5093 48.5617 41.0604 56.1361C45.6116 63.7105 55.4413 66.1613 63.0157 61.6101ZM59.7994 40.808C59.7093 40.658 59.6192 40.5079 59.5181 40.3645C59.9073 39.4598 60.1386 38.4896 60.2052 37.5163C59.7352 38.1633 59.1658 38.7679 58.5038 39.2677C58.9751 38.4013 59.1243 37.3929 58.9025 36.4324C58.4662 37.2341 57.8786 37.981 57.1747 38.6081C56.1273 38.3187 54.9625 38.4498 53.9509 39.0577C52.0038 40.2276 51.3708 42.7224 52.5168 44.6296C52.6778 44.8975 52.8714 45.1457 53.0802 45.3702C50.0749 46.9718 46.651 47.1625 43.6596 46.1017C43.664 46.799 43.8441 47.4929 44.2304 48.1357C44.9514 49.3358 46.2088 50.024 47.5286 50.0768C46.9392 50.4018 46.2987 50.5679 45.6765 50.5918L45.7022 50.6346C46.713 52.3168 48.7574 52.9842 50.5605 52.3383C50.3118 52.5897 50.0221 52.8222 49.7067 53.0117C49.4782 53.149 49.2478 53.2582 49.0109 53.3568C50.281 54.4603 52.1742 54.679 53.7381 53.783C53.0908 55.4407 51.9071 56.8957 50.2646 57.8826C49.9709 58.0591 49.6925 58.2117 49.3904 58.3496C51.5382 58.4006 53.7286 57.8574 55.7192 56.6613C62.1807 52.7789 62.5484 45.3831 59.7994 40.808Z" fill="#1DA1F2"/>
<defs>
<filter id="filter0_d_466_486" x="5.23926" y="0.720703" width="123.259" height="122.401" filterUnits="userSpaceOnUse" color-interpolation-filters="sRGB">
<feFlood flood-opacity="0" result="BackgroundImageFix"/>
<feColorMatrix in="SourceAlpha" type="matrix" values="0 0 0 0 0 0 0 0 0 0 0 0 0 0 0 0 0 0 127 0" result="hardAlpha"/>
<feOffset dx="18" dy="12"/>
<feGaussianBlur stdDeviation="12"/>
<feComposite in2="hardAlpha" operator="out"/>
<feColorMatrix type="matrix" values="0 0 0 0 0.113725 0 0 0 0 0.631373 0 0 0 0 0.94902 0 0 0 0.1 0"/>
<feBlend mode="normal" in2="BackgroundImageFix" result="effect1_dropShadow_466_486"/>
<feBlend mode="normal" in="SourceGraphic" in2="effect1_dropShadow_466_486" result="shape"/>
</filter>
<linearGradient id="paint0_linear_466_486" x1="12.2295" y1="38.6147" x2="11.6052" y2="107.816" gradientUnits="userSpaceOnUse">
<stop stop-color="#FDFEFF"/>
<stop offset="0.15625" stop-color="#F7F7F7"/>
<stop offset="0.758565" stop-color="#DEDEDE"/>
<stop offset="0.833789" stop-color="#D2D2D2"/>
<stop offset="0.91676" stop-color="#EAEAEA"/>
<stop offset="1" stop-color="#E6E6E6"/>
</linearGradient>
<linearGradient id="paint1_linear_466_486" x1="41.1463" y1="31.6816" x2="41.1463" y2="100.587" gradientUnits="userSpaceOnUse">
<stop stop-color="white"/>
<stop offset="0.831735" stop-color="#F5F5F5"/>
<stop offset="1" stop-color="white"/>
</linearGradient>
<linearGradient id="paint2_linear_466_486" x1="65.0323" y1="33.8579" x2="17.8183" y2="98.8262" gradientUnits="userSpaceOnUse">
<stop offset="0.670529" stop-color="white"/>
<stop offset="0.925805" stop-color="#F0F0F0"/>
<stop offset="1" stop-color="#C1C1C1"/>
</linearGradient>
<linearGradient id="paint3_linear_466_486" x1="18.8965" y1="20.6914" x2="40.8921" y2="52.4908" gradientUnits="userSpaceOnUse">
<stop stop-color="white" stop-opacity="0.4"/>
<stop offset="1" stop-color="white" stop-opacity="0"/>
</linearGradient>
</defs>
</svg>
