<svg width="27" height="27" viewBox="0 0 27 27" fill="none" xmlns="http://www.w3.org/2000/svg">
<circle cx="13.9375" cy="13.6963" r="13" fill="#EEBC4E"/>
<path d="M18.0663 21.2899H9.80871C8.90378 21.2871 8.03671 20.9263 7.3969 20.2864C6.75709 19.6464 6.39656 18.7792 6.39404 17.8743V9.59158C6.3961 8.68635 6.75644 7.81874 7.39629 7.1784C8.03614 6.53806 8.90348 6.17706 9.80871 6.17432H18.0654C18.9707 6.17706 19.838 6.53806 20.4779 7.1784C21.1177 7.81874 21.4781 8.68635 21.4801 9.59158V17.8544C21.482 18.7623 21.1236 19.634 20.4836 20.278C19.8436 20.9221 18.9743 21.286 18.0663 21.2899ZM9.80871 7.67538C9.30163 7.67879 8.81631 7.8818 8.45782 8.24045C8.09934 8.59909 7.89656 9.08451 7.89338 9.59158V17.8544C7.89361 18.3624 8.09545 18.8495 8.45457 19.2088C8.81369 19.5681 9.30072 19.7701 9.80871 19.7706H18.0654C18.5725 19.7672 19.0578 19.5642 19.4163 19.2055C19.7748 18.8469 19.9776 18.3615 19.9808 17.8544V9.59158C19.9776 9.08451 19.7748 8.59909 19.4163 8.24045C19.0578 7.8818 18.5725 7.67879 18.0654 7.67538H9.80871ZM13.928 17.6741C13.1554 17.6751 12.3998 17.447 11.7569 17.0185C11.1141 16.59 10.6127 15.9805 10.3163 15.267C10.02 14.5535 9.94188 13.7681 10.092 13.0102C10.2421 12.2524 10.6136 11.556 11.1595 11.0094C11.7055 10.4627 12.4013 10.0902 13.159 9.93914C13.9167 9.78803 14.7021 9.86507 15.416 10.1605C16.1299 10.4559 16.7401 10.9564 17.1695 11.5988C17.5988 12.2411 17.828 12.9963 17.828 13.7689C17.8261 14.8029 17.4149 15.7942 16.6842 16.5258C15.9536 17.2575 14.9629 17.67 13.9288 17.6733L13.928 17.6741ZM13.928 11.3639C13.4522 11.3636 12.9871 11.5043 12.5914 11.7684C12.1956 12.0324 11.8871 12.4079 11.7048 12.8474C11.5225 13.2868 11.4746 13.7704 11.5672 14.237C11.6598 14.7037 11.8888 15.1324 12.225 15.4689C12.5613 15.8054 12.9898 16.0346 13.4564 16.1276C13.923 16.2205 14.4066 16.173 14.8462 15.991C15.2858 15.809 15.6615 15.5008 15.9258 15.1052C16.1901 14.7097 16.3312 14.2447 16.3312 13.7689C16.329 13.1321 16.0752 12.522 15.6253 12.0715C15.1753 11.6209 14.5656 11.3662 13.9288 11.363L13.928 11.3639ZM17.9935 8.90518C17.7304 8.90768 17.4788 9.01348 17.2931 9.19976C17.1073 9.38605 17.0021 9.63789 17.0003 9.90098C17 10.0316 17.0254 10.161 17.0753 10.2818C17.1251 10.4026 17.1983 10.5123 17.2907 10.6047C17.3831 10.697 17.4928 10.7702 17.6136 10.8201C17.7343 10.8699 17.8637 10.8954 17.9944 10.8951C18.2572 10.8926 18.5085 10.787 18.6942 10.6011C18.88 10.4152 18.9853 10.1638 18.9876 9.90098C18.9829 9.63855 18.8768 9.38813 18.6914 9.20229C18.5061 9.01646 18.2559 8.91052 17.9935 8.90518Z" fill="white"/>
</svg>
