<svg width="26" height="26" viewBox="0 0 26 26" fill="none" xmlns="http://www.w3.org/2000/svg">
<path fill-rule="evenodd" clip-rule="evenodd" d="M12.7526 25.5051C19.7956 25.5051 25.5051 19.7956 25.5051 12.7526C25.5051 5.70951 19.7956 0 12.7526 0C5.70951 0 0 5.70951 0 12.7526C0 19.7956 5.70951 25.5051 12.7526 25.5051ZM6.33644 19.2174C6.96407 19.8452 7.81464 20.1991 8.70234 20.2017H16.8028C17.6934 20.1979 18.5462 19.841 19.174 19.2092C19.8018 18.5774 20.1534 17.7223 20.1516 16.8317V8.72615C20.1496 7.83815 19.7961 6.98705 19.1684 6.3589C18.5407 5.73075 17.6899 5.37662 16.8019 5.37393H8.70234C7.81434 5.37662 6.96352 5.73075 6.33584 6.3589C5.70817 6.98705 5.35469 7.83815 5.35267 8.72615V16.8512C5.35514 17.7389 5.70882 18.5896 6.33644 19.2174ZM7.37717 7.40073C7.72883 7.04891 8.20492 6.84977 8.70234 6.84642H16.8019C17.2993 6.84977 17.7754 7.04891 18.1271 7.40073C18.4787 7.75255 18.6777 8.22872 18.6808 8.72615V16.8317C18.6777 17.3291 18.4787 17.8053 18.1271 18.1571C17.7754 18.5089 17.2993 18.7081 16.8019 18.7114H8.70234C8.20403 18.7109 7.72626 18.5127 7.37398 18.1603C7.02169 17.8078 6.82369 17.33 6.82347 16.8317V8.72615C6.82659 8.22872 7.02551 7.75255 7.37717 7.40073ZM10.6135 16.0117C11.2442 16.432 11.9853 16.6558 12.7432 16.6548L12.7441 16.654C13.7584 16.6508 14.7302 16.2462 15.447 15.5284C16.1638 14.8107 16.5672 13.8383 16.569 12.824C16.569 12.0661 16.3442 11.3252 15.923 10.6951C15.5018 10.065 14.9032 9.57402 14.2029 9.28423C13.5026 8.99443 12.7321 8.91886 11.9889 9.06709C11.2456 9.21532 10.563 9.58068 10.0275 10.1169C9.49191 10.6532 9.12746 11.3363 8.98022 12.0797C8.83298 12.8232 8.90958 13.5936 9.20031 14.2935C9.49104 14.9934 9.98284 15.5914 10.6135 16.0117ZM11.432 10.8615C11.8202 10.6025 12.2765 10.4644 12.7432 10.4647L12.7441 10.4639C13.3687 10.467 13.9668 10.7168 14.4082 11.1588C14.8496 11.6008 15.0985 12.1993 15.1007 12.824C15.1007 13.2907 14.9623 13.7469 14.703 14.1349C14.4437 14.5229 14.0751 14.8253 13.6439 15.0038C13.2128 15.1823 12.7383 15.2289 12.2806 15.1377C11.8229 15.0466 11.4026 14.8217 11.0727 14.4916C10.7428 14.1615 10.5182 13.7409 10.4274 13.2832C10.3366 12.8254 10.3835 12.351 10.5624 11.92C10.7412 11.4889 11.0438 11.1206 11.432 10.8615ZM16.0442 8.34178C16.2265 8.15905 16.4733 8.05526 16.7314 8.05281C16.9888 8.05805 17.2342 8.16197 17.416 8.34427C17.5978 8.52657 17.7019 8.77222 17.7065 9.02966C17.7043 9.28745 17.6009 9.53407 17.4187 9.71644C17.2365 9.89882 16.99 10.0024 16.7322 10.0048C16.604 10.0051 16.4771 9.98015 16.3586 9.93126C16.2402 9.88237 16.1325 9.81056 16.0419 9.71994C15.9513 9.62932 15.8795 9.52169 15.8306 9.40323C15.7817 9.28477 15.7567 9.15781 15.7571 9.02966C15.7588 8.77157 15.862 8.52452 16.0442 8.34178Z" fill="white"/>
</svg>
