<svg width="158" height="150" viewBox="0 0 158 150" fill="none" xmlns="http://www.w3.org/2000/svg">
<g filter="url(#filter0_d_466_537)">
<rect x="0.67334" y="49.1653" width="77.037" height="92.1095" rx="38.2139" transform="rotate(-31 0.67334 49.1653)" fill="url(#paint0_linear_466_537)"/>
<rect x="20.1355" y="40.5924" width="71.6871" height="86.7596" rx="35.5389" transform="rotate(-31 20.1355 40.5924)" fill="url(#paint1_linear_466_537)"/>
<rect x="20.1355" y="40.5924" width="71.6871" height="86.7596" rx="35.5389" transform="rotate(-31 20.1355 40.5924)" stroke="url(#paint2_linear_466_537)" stroke-width="5.34995"/>
<rect x="20.1355" y="40.5924" width="71.6871" height="86.7596" rx="35.5389" transform="rotate(-31 20.1355 40.5924)" stroke="url(#paint3_linear_466_537)" stroke-width="5.34995"/>
<g clip-path="url(#clip0_466_537)">
<path d="M79.2481 30.4687L71.0037 50.4729L69.8369 42.2944L79.2481 30.4687Z" fill="#E2761B" stroke="#E2761B" stroke-linecap="round" stroke-linejoin="round"/>
<path d="M44.877 51.1211L66.3533 53.4098L59.7516 48.3544L44.877 51.1211Z" fill="#E4761B" stroke="#E4761B" stroke-linecap="round" stroke-linejoin="round"/>
<path d="M89.293 59.32L88.978 67.7778L98.8649 65.0143L96.3319 55.2739L89.293 59.32Z" fill="#E4761B" stroke="#E4761B" stroke-linecap="round" stroke-linejoin="round"/>
<path d="M58.7879 77.8324L66.1841 84.6507L73.2658 77.2185L65.6501 73.5259L58.7879 77.8324Z" fill="#E4761B" stroke="#E4761B" stroke-linecap="round" stroke-linejoin="round"/>
<path d="M62.9692 61.1661L62.7538 66.163L71.4031 61.4751L65.6643 52.602L62.9692 61.1661Z" fill="#E4761B" stroke="#E4761B" stroke-linecap="round" stroke-linejoin="round"/>
<path d="M79.6235 51.1591L70.6589 49.4583L75.9669 58.7329L84.1516 53.3059L79.6235 51.1591Z" fill="#E4761B" stroke="#E4761B" stroke-linecap="round" stroke-linejoin="round"/>
<path d="M73.2659 77.2186L76.8401 71.7106L70.4207 70.9243L73.2659 77.2186Z" fill="#E4761B" stroke="#E4761B" stroke-linecap="round" stroke-linejoin="round"/>
<path d="M82.4215 68.357L88.9777 67.778L84.7409 62.3199L82.4215 68.357Z" fill="#E4761B" stroke="#E4761B" stroke-linecap="round" stroke-linejoin="round"/>
<path d="M88.9775 67.778L82.4214 68.3569L84.8124 71.4211L85.6037 72.8397L88.9775 67.778Z" fill="#D7C1B3" stroke="#D7C1B3" stroke-linecap="round" stroke-linejoin="round"/>
<path d="M73.2657 77.2185L79.3189 76.6159L78.4528 75.2423L76.8399 71.7106L73.2657 77.2185Z" fill="#D7C1B3" stroke="#D7C1B3" stroke-linecap="round" stroke-linejoin="round"/>
<path d="M73.208 66.2759L68.242 67.5694L70.4016 64.4186L73.208 66.2759Z" fill="#233447" stroke="#233447" stroke-linecap="round" stroke-linejoin="round"/>
<path d="M79.3281 62.5988L79.0056 59.2489L82.8165 58.8123L79.3281 62.5988Z" fill="#233447" stroke="#233447" stroke-linecap="round" stroke-linejoin="round"/>
<path d="M73.2661 77.2185L70.334 70.7117L65.7313 73.6605L73.2661 77.2185Z" fill="#CD6116" stroke="#CD6116" stroke-linecap="round" stroke-linejoin="round"/>
<path d="M84.6094 62.1343L88.978 67.7779L89.3739 59.4548L84.6094 62.1343Z" fill="#CD6116" stroke="#CD6116" stroke-linecap="round" stroke-linejoin="round"/>
<path d="M84.1517 53.3057L75.967 58.7327L79.3435 62.5897L79.021 59.2398L82.8319 58.8032L84.1517 53.3057Z" fill="#CD6116" stroke="#CD6116" stroke-linecap="round" stroke-linejoin="round"/>
<path d="M68.242 67.5695L70.4166 64.4096L73.208 66.276L71.4027 61.475L62.7534 66.1628L68.242 67.5695Z" fill="#CD6116" stroke="#CD6116" stroke-linecap="round" stroke-linejoin="round"/>
<path d="M62.7534 66.1628L70.4207 70.9242L68.242 67.5695L62.7534 66.1628Z" fill="#E4751F" stroke="#E4751F" stroke-linecap="round" stroke-linejoin="round"/>
<path d="M82.8315 58.8032L84.7408 62.3198L84.1513 53.3057L82.8315 58.8032Z" fill="#E4751F" stroke="#E4751F" stroke-linecap="round" stroke-linejoin="round"/>
<path d="M71.4024 61.4749L73.2078 66.2759L77.2613 70.785L73.4488 63.9315L71.4024 61.4749Z" fill="#E4751F" stroke="#E4751F" stroke-linecap="round" stroke-linejoin="round"/>
<path d="M75.9665 58.7328L77.1809 61.669L81.4064 68.2947L79.343 62.5898L75.9665 58.7328Z" fill="#E4751F" stroke="#E4751F" stroke-linecap="round" stroke-linejoin="round"/>
<path d="M79.343 62.5898L81.4064 68.2947L82.4214 68.357L84.7408 62.3199L82.8315 58.8033L79.343 62.5898Z" fill="#F6851B" stroke="#F6851B" stroke-linecap="round" stroke-linejoin="round"/>
<path d="M68.2422 67.5693L70.4208 70.9241L76.8401 71.7104L77.2617 70.785L73.2082 66.2758L68.2422 67.5693Z" fill="#F6851B" stroke="#F6851B" stroke-linecap="round" stroke-linejoin="round"/>
<path d="M85.6035 72.8397L84.8122 71.4211L84.2403 71.3167L78.5991 74.7063L78.4527 75.2423L79.3188 76.6159L73.2656 77.2185L75.7208 77.5762L80.4513 77.8906L86.1823 74.447L88.1405 70.1137L88.9773 67.778L85.6035 72.8397Z" fill="#C0AD9E" stroke="#C0AD9E" stroke-linecap="round" stroke-linejoin="round"/>
<path d="M82.4216 68.3568L81.4067 68.2946L77.2618 70.7851L76.8402 71.7104L78.4531 75.2421L78.5995 74.7062L84.2408 71.3165L84.8127 71.421L82.4216 68.3568Z" fill="#161616" stroke="#161616" stroke-linecap="round" stroke-linejoin="round"/>
<path d="M86.9524 41.8675L84.5559 34.9981L79.248 30.4688L71.2726 49.8021L79.6233 51.1591L88.8249 48.7462L89.3469 45.6831L88.275 45.594L88.8157 43.7824L87.4564 43.6216L88.1051 41.9895L86.9524 41.8675Z" fill="#763D16" stroke="#763D16" stroke-linecap="round" stroke-linejoin="round"/>
<path d="M46.3988 57.9251L51.339 63.266L50.8906 64.35L52.6362 64.5435L52.155 65.8102L54.0084 66.1833L53.5839 67.1715L56.5185 68.1576L62.9688 61.1659L65.6911 53.1557L44.8766 51.121L46.3988 57.9251Z" fill="#763D16" stroke="#763D16" stroke-linecap="round" stroke-linejoin="round"/>
<path d="M88.8248 48.7462L79.6232 51.1591L84.1513 53.3058L84.7408 62.3199L89.3734 59.4548L96.3315 55.274L88.8248 48.7462Z" fill="#F6851B" stroke="#F6851B" stroke-linecap="round" stroke-linejoin="round"/>
<path d="M62.9687 61.1659L56.5183 68.1576L58.7878 77.8323L65.7309 73.6604L70.4205 70.9241L62.7533 66.1628L62.9687 61.1659Z" fill="#F6851B" stroke="#F6851B" stroke-linecap="round" stroke-linejoin="round"/>
<path d="M75.9667 58.7326L71.2727 49.802L69.8519 42.2853L59.7515 48.3542L65.6913 53.1556L71.4028 61.4749L73.2188 64.0904L77.2617 70.785L81.4066 68.2945L77.4086 61.5729L75.9667 58.7326Z" fill="#F6851B" stroke="#F6851B" stroke-linecap="round" stroke-linejoin="round"/>
</g>
</g>
<defs>
<filter id="filter0_d_466_537" x="8.96045" y="2.33228" width="148.691" height="147.454" filterUnits="userSpaceOnUse" color-interpolation-filters="sRGB">
<feFlood flood-opacity="0" result="BackgroundImageFix"/>
<feColorMatrix in="SourceAlpha" type="matrix" values="0 0 0 0 0 0 0 0 0 0 0 0 0 0 0 0 0 0 127 0" result="hardAlpha"/>
<feOffset dx="18" dy="12"/>
<feGaussianBlur stdDeviation="12"/>
<feComposite in2="hardAlpha" operator="out"/>
<feColorMatrix type="matrix" values="0 0 0 0 0.964706 0 0 0 0 0.521569 0 0 0 0 0.105882 0 0 0 0.13 0"/>
<feBlend mode="normal" in2="BackgroundImageFix" result="effect1_dropShadow_466_537"/>
<feBlend mode="normal" in="SourceGraphic" in2="effect1_dropShadow_466_537" result="shape"/>
</filter>
<linearGradient id="paint0_linear_466_537" x1="16.328" y1="48.9452" x2="15.4935" y2="141.451" gradientUnits="userSpaceOnUse">
<stop stop-color="#FDFEFF"/>
<stop offset="0.15625" stop-color="#F7F7F7"/>
<stop offset="0.758565" stop-color="#DEDEDE"/>
<stop offset="0.833789" stop-color="#D2D2D2"/>
<stop offset="0.91676" stop-color="#EAEAEA"/>
<stop offset="1" stop-color="#E6E6E6"/>
</linearGradient>
<linearGradient id="paint1_linear_466_537" x1="54.9834" y1="39.6772" x2="54.9834" y2="131.787" gradientUnits="userSpaceOnUse">
<stop stop-color="white"/>
<stop offset="0.831735" stop-color="#F5F5F5"/>
<stop offset="1" stop-color="white"/>
</linearGradient>
<linearGradient id="paint2_linear_466_537" x1="86.9131" y1="42.5864" x2="23.7996" y2="129.433" gradientUnits="userSpaceOnUse">
<stop offset="0.670529" stop-color="white"/>
<stop offset="0.925805" stop-color="#F0F0F0"/>
<stop offset="1" stop-color="#C1C1C1"/>
</linearGradient>
<linearGradient id="paint3_linear_466_537" x1="25.2409" y1="24.9861" x2="54.6436" y2="67.4939" gradientUnits="userSpaceOnUse">
<stop stop-color="white" stop-opacity="0.4"/>
<stop offset="1" stop-color="white" stop-opacity="0"/>
</linearGradient>
<clipPath id="clip0_466_537">
<rect width="55.6179" height="55.6179" fill="white" transform="translate(35.041 49.801) rotate(-31)"/>
</clipPath>
</defs>
</svg>
