<svg width="27" height="26" viewBox="0 0 27 26" fill="none" xmlns="http://www.w3.org/2000/svg">
<path d="M13.5 0.52002C6.34234 0.52002 0.540039 6.10742 0.540039 13C0.540039 19.8926 6.34234 25.48 13.5 25.48C20.6577 25.48 26.46 19.8926 26.46 13C26.46 6.10742 20.6577 0.52002 13.5 0.52002ZM18.7718 10.7432C18.7772 10.8498 18.7785 10.9564 18.7785 11.0604C18.7785 14.3104 16.2122 18.0557 11.5169 18.0557C10.1295 18.0579 8.77094 17.6742 7.60459 16.9507C7.80304 16.9741 8.00689 16.9832 8.21344 16.9832C9.40954 16.9832 10.5098 16.5919 11.3832 15.9315C10.851 15.9215 10.3352 15.7517 9.90784 15.446C9.48048 15.1403 9.16283 14.7138 8.99914 14.2259C9.3814 14.2959 9.77519 14.2812 10.1507 14.183C9.57296 14.0705 9.05341 13.7691 8.68015 13.3298C8.30688 12.8905 8.10288 12.3404 8.10274 11.7728V11.7429C8.44699 11.9262 8.84119 12.038 9.25969 12.051C8.71807 11.7038 8.33465 11.1705 8.18785 10.5601C8.04105 9.94969 8.14196 9.30835 8.46994 8.76722C9.11113 9.52642 9.91074 10.1475 10.817 10.5902C11.7233 11.033 12.716 11.2875 13.7309 11.3373C13.6019 10.8099 13.6574 10.2562 13.8889 9.76237C14.1203 9.2685 14.5147 8.86211 15.0108 8.60636C15.5068 8.35062 16.0767 8.25986 16.6319 8.34819C17.187 8.43653 17.6963 8.699 18.0806 9.09482C18.6519 8.98598 19.1997 8.78419 19.7006 8.49812C19.5102 9.06769 19.1116 9.55135 18.5787 9.85922C19.0848 9.80053 19.5789 9.66952 20.0448 9.47052C19.7026 9.96438 19.2715 10.3954 18.7718 10.7432Z" fill="white"/>
</svg>
