<svg width="27" height="27" viewBox="0 0 27 27" fill="none" xmlns="http://www.w3.org/2000/svg">
<g clip-path="url(#clip0_1070_223)">
<path d="M13.0625 1.21631C6.16992 1.21631 0.58252 6.80371 0.58252 13.6963C0.58252 20.5889 6.16992 26.1763 13.0625 26.1763C19.9551 26.1763 25.5425 20.5889 25.5425 13.6963C25.5425 6.80371 19.9551 1.21631 13.0625 1.21631ZM18.139 11.4395C18.1442 11.5461 18.1455 11.6527 18.1455 11.7567C18.1455 15.0067 15.6742 18.752 11.1528 18.752C9.8168 18.7542 8.50858 18.3705 7.38542 17.647C7.57652 17.6704 7.77282 17.6795 7.97172 17.6795C9.12352 17.6795 10.183 17.2882 11.0241 16.6278C10.5116 16.6177 10.0149 16.448 9.60336 16.1423C9.19184 15.8365 8.88594 15.41 8.72832 14.9222C9.09642 14.9922 9.47562 14.9775 9.83722 14.8793C9.28088 14.7668 8.78058 14.4654 8.42114 14.0261C8.0617 13.5868 7.86526 13.0367 7.86512 12.4691V12.4392C8.19662 12.6225 8.57622 12.7343 8.97922 12.7473C8.45766 12.4001 8.08844 11.8668 7.94708 11.2564C7.80571 10.646 7.90289 10.0046 8.21872 9.46351C8.83616 10.2227 9.60616 10.8438 10.4789 11.2865C11.3516 11.7292 12.3075 11.9838 13.2848 12.0336C13.1606 11.5062 13.214 10.9525 13.4369 10.4587C13.6598 9.96479 14.0396 9.5584 14.5173 9.30265C14.995 9.04691 15.5438 8.95615 16.0784 9.04448C16.613 9.13281 17.1034 9.39529 17.4734 9.79111C18.0235 9.68227 18.5511 9.48048 19.0334 9.19441C18.8501 9.76398 18.4662 10.2476 17.9531 10.5555C18.4404 10.4968 18.9162 10.3658 19.3649 10.1668C19.0354 10.6607 18.6202 11.0917 18.139 11.4395Z" fill="#EEBC4E"/>
</g>
<defs>
<clipPath id="clip0_1070_223">
<rect width="26" height="26" fill="white" transform="translate(0.0625 0.696289)"/>
</clipPath>
</defs>
</svg>
