<svg width="27" height="26" viewBox="0 0 27 26" fill="none" xmlns="http://www.w3.org/2000/svg">
<path d="M13.5 0C6.048 0 0 5.824 0 13C0 20.176 6.048 26 13.5 26C20.952 26 27 20.176 27 13C27 5.824 20.952 0 13.5 0ZM13.5 20.696C9.0855 20.696 5.508 17.251 5.508 13C5.508 8.749 9.0855 5.304 13.5 5.304C17.9145 5.304 21.492 8.749 21.492 13C21.492 17.251 17.9145 20.696 13.5 20.696ZM13.5 6.253C9.639 6.253 6.4935 9.282 6.4935 13C6.4935 16.718 9.639 19.747 13.5 19.747C17.361 19.747 20.5065 16.718 20.5065 13C20.5065 9.282 17.361 6.253 13.5 6.253ZM10.8945 16.835V9.165L17.793 13L10.8945 16.835Z" fill="white"/>
</svg>
