<svg width="27" height="27" viewBox="0 0 27 27" fill="none" xmlns="http://www.w3.org/2000/svg">
<g clip-path="url(#clip0_1070_225)">
<path d="M13.0625 0.696289C5.8865 0.696289 0.0625 6.52029 0.0625 13.6963C0.0625 20.8723 5.8865 26.6963 13.0625 26.6963C20.2385 26.6963 26.0625 20.8723 26.0625 13.6963C26.0625 6.52029 20.2385 0.696289 13.0625 0.696289ZM13.0625 21.3923C8.8115 21.3923 5.3665 17.9473 5.3665 13.6963C5.3665 9.44529 8.8115 6.00029 13.0625 6.00029C17.3135 6.00029 20.7585 9.44529 20.7585 13.6963C20.7585 17.9473 17.3135 21.3923 13.0625 21.3923ZM13.0625 6.94929C9.3445 6.94929 6.3155 9.97829 6.3155 13.6963C6.3155 17.4143 9.3445 20.4433 13.0625 20.4433C16.7805 20.4433 19.8095 17.4143 19.8095 13.6963C19.8095 9.97829 16.7805 6.94929 13.0625 6.94929ZM10.5535 17.5313V9.86129L17.1965 13.6963L10.5535 17.5313Z" fill="#EEBC4E"/>
</g>
<defs>
<clipPath id="clip0_1070_225">
<rect width="26" height="26" fill="white" transform="translate(0.0625 0.696289)"/>
</clipPath>
</defs>
</svg>
